<svg xmlns="http://www.w3.org/2000/svg" width="168" height="168" viewBox="0 0 168 168" fill="none"><path d="M46.9087 152.774H121.15V165H46.9087V152.774Z" stroke="#CECECE" stroke-width="6" stroke-linejoin="round"></path><path d="M74.749 152.774V130.766C74.749 127.727 77.5189 125.264 80.9358 125.264H87.1225C90.5394 125.264 93.3093 127.727 93.3093 130.766V152.774" stroke="#CECECE" stroke-width="6" stroke-linejoin="round"></path><path d="M93.3093 21.3398C93.3093 22.544 93.0693 23.7368 92.6029 24.8494C92.1365 25.9619 91.453 26.9724 90.5912 27.8239C89.7295 28.6754 88.7064 29.351 87.5805 29.8119C86.4546 30.2727 85.2478 30.5096 84.0291 30.5096C82.8105 30.5096 81.6037 30.2727 80.4778 29.8119C79.3519 29.351 78.3288 28.6754 77.4671 27.8239C76.6053 26.9724 75.9218 25.9619 75.4554 24.8494C74.989 23.7368 74.749 22.544 74.749 21.3398C74.749 20.1356 74.989 18.9435 75.4554 17.831C75.9218 16.7184 76.6053 15.7072 77.4671 14.8557C78.3288 14.0042 79.3519 13.3293 80.4778 12.8685C81.6037 12.4076 82.8105 12.17 84.0291 12.17C85.2478 12.17 86.4546 12.4076 87.5805 12.8685C88.7064 13.3293 89.7295 14.0042 90.5912 14.8557C91.453 15.7072 92.1365 16.7184 92.6029 17.831C93.0693 18.9435 93.3093 20.1356 93.3093 21.3398Z" stroke="#CECECE" stroke-width="6" stroke-linejoin="round"></path><path d="M80.9363 79.4152C80.9363 79.8166 81.0163 80.2142 81.1718 80.585C81.3272 80.9559 81.5551 81.2927 81.8423 81.5765C82.1296 81.8604 82.4706 82.0856 82.8459 82.2392C83.2212 82.3928 83.6234 82.4718 84.0297 82.4718C84.4359 82.4718 84.8382 82.3928 85.2135 82.2392C85.5888 82.0856 85.9298 81.8604 86.217 81.5765C86.5043 81.2927 86.7321 80.9559 86.8876 80.585C87.043 80.2142 87.1231 79.8166 87.123 79.4152C87.1231 79.0138 87.043 78.6164 86.8876 78.2456C86.7321 77.8747 86.5043 77.5377 86.217 77.2538C85.9298 76.97 85.5888 76.745 85.2135 76.5914C84.8382 76.4378 84.4359 76.3586 84.0297 76.3586C83.6234 76.3586 83.2212 76.4378 82.8459 76.5914C82.4706 76.745 82.1296 76.97 81.8423 77.2538C81.5551 77.5377 81.3272 77.8747 81.1718 78.2456C81.0163 78.6164 80.9363 79.0138 80.9363 79.4152Z" stroke="#CECECE" stroke-width="6" stroke-linejoin="round"></path><path d="M84.0293 91.6414V122.207" stroke="#CECECE" stroke-width="6" stroke-linecap="round" stroke-linejoin="round"></path><path d="M84.0293 3V12.1698" stroke="#CECECE" stroke-width="6" stroke-linecap="round" stroke-linejoin="round"></path><path d="M74.7492 21.3395H24.353M24.353 21.3395L3.60156 84.1018V88.381C3.60156 93.2991 5.6317 98.0156 9.24537 101.493C12.859 104.971 17.7602 106.924 22.8707 106.924C25.4012 106.924 27.9069 106.445 30.2447 105.513C32.5825 104.581 34.7067 103.215 36.4961 101.493C38.2854 99.7713 39.7047 97.7274 40.6731 95.4776C41.6414 93.2278 42.1399 90.8162 42.1399 88.381V84.1018L24.353 21.3395Z" stroke="#CECECE" stroke-width="6" stroke-linejoin="round"></path><path d="M3.60156 88.585H43.8154" stroke="#CECECE" stroke-width="6"></path><path d="M93.3096 21.3395H143.706M143.706 21.3395L164.457 84.1018V88.381C164.457 93.2991 162.427 98.0156 158.813 101.493C155.2 104.971 150.299 106.924 145.188 106.924C140.078 106.924 135.176 104.971 131.563 101.493C127.949 98.0156 125.919 93.2991 125.919 88.381V84.1018L143.706 21.3395Z" stroke="#CECECE" stroke-width="6" stroke-linejoin="round"></path><path d="M124.243 88.585H164.457" stroke="#CECECE" stroke-width="6"></path><path d="M84.0293 30.5095V64.1322" stroke="#CECECE" stroke-width="6" stroke-linecap="round" stroke-linejoin="round"></path></svg>