<svg xmlns="http://www.w3.org/2000/svg" width="138" height="168" viewBox="0 0 138 168" fill="none"><path d="M85.2586 3H19.6791C15.3309 3 11.1608 4.70678 8.08613 7.74487C5.01149 10.783 3.28418 14.9035 3.28418 19.2V148.8C3.28418 153.097 5.01149 157.217 8.08613 160.255C11.1608 163.293 15.3309 165 19.6791 165H118.048C122.397 165 126.567 163.293 129.641 160.255C132.716 157.217 134.443 153.097 134.443 148.8V51.6L85.2586 3Z" stroke="#CECECE" stroke-width="6" stroke-linecap="round" stroke-linejoin="round"></path><path d="M85.2588 3V51.6H134.443" stroke="#CECECE" stroke-width="6" stroke-linecap="round" stroke-linejoin="round"></path><path d="M101.653 92.1H36.0737" stroke="#CECECE" stroke-width="6" stroke-linecap="round" stroke-linejoin="round"></path><path d="M101.653 124.5H36.0737" stroke="#CECECE" stroke-width="6" stroke-linecap="round" stroke-linejoin="round"></path><path d="M52.4686 59.7H44.2712H36.0737" stroke="#CECECE" stroke-width="6" stroke-linecap="round" stroke-linejoin="round"></path></svg>