<svg xmlns="http://www.w3.org/2000/svg" width="31" height="24" viewBox="0 0 31 24" fill="none"><path d="M30.1464 4.01243C30.0136 3.34383 29.7172 2.73199 29.3032 2.22654C29.2159 2.11641 29.1247 2.01779 29.0258 1.91916C28.2923 1.18201 27.2628 0.722168 26.1381 0.722168H4.86217C3.73747 0.722168 2.71163 1.18201 1.97465 1.91916C1.87602 2.01779 1.78481 2.11641 1.69728 2.22654C1.28305 2.73193 0.986589 3.34383 0.857539 4.01243C0.804516 4.27047 0.777832 4.53714 0.777832 4.80674V19.7495C0.777832 20.3227 0.899406 20.8738 1.11621 21.3714C1.31732 21.8464 1.61384 22.2762 1.97459 22.6366C2.06603 22.7278 2.15684 22.8117 2.25593 22.8951C2.96248 23.4802 3.87452 23.8336 4.86217 23.8336H26.1381C27.1261 23.8336 28.0421 23.4802 28.7445 22.8914C28.8433 22.8117 28.9346 22.7278 29.0258 22.6366C29.3864 22.2762 29.6829 21.8464 29.8881 21.3714V21.3677C30.1049 20.8701 30.2223 20.3227 30.2223 19.7495V4.80674C30.2224 4.53714 30.1961 4.27047 30.1464 4.01243ZM3.45251 3.39685C3.81741 3.03236 4.30744 2.8117 4.86217 2.8117H26.1381C26.6928 2.8117 27.1871 3.03236 27.5477 3.39685C27.6122 3.46178 27.673 3.53412 27.7267 3.60601L16.5753 13.3247C16.2677 13.5943 15.8878 13.7274 15.5001 13.7274C15.1163 13.7274 14.7366 13.5943 14.425 13.3247L3.27786 3.60187C3.3272 3.52998 3.38799 3.46178 3.45251 3.39685ZM2.86736 19.7495V5.76415L10.9372 12.8041L2.87144 19.8366C2.86736 19.8099 2.86736 19.7799 2.86736 19.7495ZM26.1381 21.7437H4.86217C4.50096 21.7437 4.16298 21.6487 3.87452 21.4819L12.3846 14.0656L13.1791 14.7568C13.8439 15.3345 14.6759 15.6271 15.5001 15.6271C16.3286 15.6271 17.1605 15.3345 17.8253 14.7568L18.6194 14.0656L27.1261 21.4819C26.8373 21.6487 26.4993 21.7437 26.1381 21.7437ZM28.1329 19.7495C28.1329 19.7799 28.1329 19.8099 28.129 19.8366L20.0632 12.8082L28.1329 5.76789V19.7495Z" fill="#051B43"></path></svg>