<svg xmlns="http://www.w3.org/2000/svg" width="932" height="505" viewBox="0 0 932 505" fill="none"><ellipse cx="624" cy="283" rx="214" ry="222" fill="#DBA12A"></ellipse><rect x="758" y="147" width="84" height="84" rx="9" stroke="white" stroke-width="2"></rect><rect x="274.914" y="335.487" width="42.1892" height="42.1892" rx="9" transform="rotate(33.7298 274.914 335.487)" stroke="#DBA12A" stroke-width="2"></rect><rect x="750.814" y="1.38694" width="42.1892" height="42.1892" rx="9" transform="rotate(33.7298 750.814 1.38694)" stroke="#DBA12A" stroke-width="2"></rect><path d="M520.202 465.75L527.563 453L534.925 465.75H520.202Z" stroke="white"></path><path d="M474.202 465.75L481.563 453L488.925 465.75H474.202Z" stroke="white"></path><path d="M458.821 465.75L466.182 453L473.544 465.75H458.821Z" stroke="white"></path><path d="M443.139 465.75L450.5 453L457.861 465.75H443.139Z" stroke="white"></path><path d="M504.821 465.75L512.182 453L519.544 465.75H504.821Z" stroke="white"></path><path d="M489.139 465.75L496.5 453L503.861 465.75H489.139Z" stroke="white"></path><path d="M79.2023 321.75L86.5635 309L93.9247 321.75H79.2023Z" stroke="#DBA12A"></path><path d="M33.2023 321.75L40.5635 309L47.9247 321.75H33.2023Z" stroke="#DBA12A"></path><path d="M17.8213 321.75L25.1825 309L32.5437 321.75H17.8213Z" stroke="#DBA12A"></path><path d="M2.13878 321.75L9.5 309L16.8612 321.75H2.13878Z" stroke="#DBA12A"></path><path d="M63.8213 321.75L71.1825 309L78.5437 321.75H63.8213Z" stroke="#DBA12A"></path><path d="M48.1388 321.75L55.5 309L62.8612 321.75H48.1388Z" stroke="#DBA12A"></path><path d="M486.202 113.75L493.563 101L500.925 113.75H486.202Z" stroke="white"></path><path d="M440.202 113.75L447.563 101L454.925 113.75H440.202Z" stroke="white"></path><path d="M424.821 113.75L432.182 101L439.544 113.75H424.821Z" stroke="white"></path><path d="M409.139 113.75L416.5 101L423.861 113.75H409.139Z" stroke="white"></path><path d="M470.821 113.75L478.182 101L485.544 113.75H470.821Z" stroke="white"></path><path d="M455.139 113.75L462.5 101L469.861 113.75H455.139Z" stroke="white"></path><path d="M926.75 402.861L914 395.5L926.75 388.139L926.75 402.861Z" stroke="#DBA12A"></path><path d="M926.75 448.861L914 441.5L926.75 434.139L926.75 448.861Z" stroke="#DBA12A"></path><path d="M926.75 464.242L914 456.881L926.75 449.52L926.75 464.242Z" stroke="#DBA12A"></path><path d="M926.75 479.925L914 472.563L926.75 465.202L926.75 479.925Z" stroke="#DBA12A"></path><path d="M926.75 418.242L914 410.881L926.75 403.52L926.75 418.242Z" stroke="#DBA12A"></path><path d="M926.75 433.925L914 426.563L926.75 419.202L926.75 433.925Z" stroke="#DBA12A"></path></svg>