<svg xmlns="http://www.w3.org/2000/svg" width="56" height="47" viewBox="0 0 56 47" fill="none"><path d="M49.9903 5.80151C48.7197 4.59632 47.2111 3.64028 45.5507 2.988C43.8903 2.33573 42.1106 2 40.3133 2C38.516 2 36.7363 2.33573 35.0759 2.988C33.4154 3.64028 31.9069 4.59632 30.6363 5.80151L27.9993 8.30154L25.3624 5.80151C22.7959 3.36825 19.315 2.00126 15.6854 2.00126C12.0558 2.00126 8.57486 3.36825 6.00836 5.80151C3.44185 8.23477 2 11.535 2 14.9761C2 18.4173 3.44185 21.7175 6.00836 24.1507L8.64528 26.6508L27.9993 45L47.3534 26.6508L49.9903 24.1507C51.2615 22.9461 52.2699 21.5158 52.9579 19.9416C53.6459 18.3674 54 16.6801 54 14.9761C54 13.2721 53.6459 11.5848 52.9579 10.0106C52.2699 8.43641 51.2615 7.00614 49.9903 5.80151V5.80151Z" stroke="#082A65" stroke-width="4" stroke-linecap="round" stroke-linejoin="round"></path></svg>