<svg xmlns="http://www.w3.org/2000/svg" width="52" height="52" viewBox="0 0 52 52" fill="none"><rect width="52" height="52" rx="25" fill="#DBA12A"></rect><path d="M35.1138 16.7701C33.9218 15.5699 32.5029 14.6185 30.9398 13.9713C29.3766 13.3241 27.7002 12.994 26.0081 13.0001C23.7462 13.0023 21.5244 13.5984 19.5654 14.7287C17.6064 15.859 15.979 17.4839 14.8461 19.4405C13.7132 21.3972 13.1146 23.617 13.1102 25.8775C13.1058 28.1382 13.6958 30.3602 14.8211 32.3213L13 39L19.8293 37.2125C21.715 38.261 23.834 38.8198 25.9919 38.8375C29.4223 38.8377 32.7138 37.4836 35.1499 35.0701C37.5862 32.6568 38.9699 29.3794 39 25.9513C38.9886 24.2407 38.6394 22.5491 37.9725 20.9736C37.3057 19.3981 36.3341 17.9696 35.1138 16.7701ZM26.0081 36.6113C24.0857 36.6126 22.1984 36.0961 20.5447 35.1163L20.1545 34.8725L16.1057 35.945L17.1789 31.9963L16.9187 31.59C15.5354 29.3584 15.0191 26.6972 15.4677 24.1105C15.9163 21.5239 17.2986 19.1916 19.3527 17.5553C21.4068 15.919 23.9901 15.0925 26.6132 15.2323C29.2363 15.3721 31.7171 16.4685 33.5854 18.3138C35.6276 20.3096 36.7967 23.032 36.8374 25.8863C36.8117 28.7396 35.6593 31.4673 33.6312 33.476C31.6033 35.4845 28.8634 36.6114 26.0081 36.6113ZM31.878 28.5838C31.5528 28.4213 29.9756 27.6413 29.6829 27.5438C29.3902 27.4463 29.1626 27.3813 28.9512 27.7063C28.6332 28.142 28.2911 28.5596 27.9268 28.9575C27.748 29.185 27.5528 29.2013 27.2276 28.9575C25.3735 28.2253 23.8288 26.8766 22.8537 25.1388C22.5122 24.5701 23.1789 24.6026 23.7967 23.3838C23.8424 23.2959 23.8662 23.1984 23.8662 23.0994C23.8662 23.0005 23.8424 22.903 23.7967 22.8151C23.7967 22.6525 23.065 21.0601 22.8049 20.4263C22.5447 19.7926 22.2846 19.8901 22.0732 19.8738H21.439C21.2747 19.8763 21.1128 19.9139 20.9642 19.9839C20.8156 20.054 20.6837 20.1549 20.5772 20.2801C20.2124 20.6346 19.9278 21.0632 19.7427 21.5369C19.5576 22.0106 19.4762 22.5185 19.5041 23.0263C19.606 24.242 20.0641 25.4006 20.8211 26.3575C22.2068 28.4307 24.1059 30.1101 26.3333 31.2325C27.5016 31.9141 28.8593 32.1991 30.2033 32.045C30.6507 31.9563 31.0746 31.7745 31.4472 31.5112C31.8198 31.2481 32.1328 30.9095 32.3659 30.5175C32.5818 30.0391 32.6498 29.5073 32.561 28.99C32.4146 28.8275 32.2033 28.7463 31.878 28.5838Z" fill="#051B43"></path></svg>