<svg xmlns="http://www.w3.org/2000/svg" width="667" height="531" viewBox="0 0 667 531" fill="none"><path d="M259.934 45.5441C269.51 43.6301 282.526 48.4132 282.526 48.4132C282.526 48.4132 275.972 41.836 268.972 41.836C264.684 41.836 253.367 41.836 245.562 51.2787C241.304 56.425 231.597 57.8414 231.597 57.8414C244.333 59.9006 251.723 47.1856 259.934 45.5441ZM703.916 252.811C700.785 249.88 696.857 247.701 692.588 246.06L641.594 106.522L646.962 104.343L650.235 89.0313L592.775 102.977C600.808 78.4591 606.958 59.4975 606.958 59.4975L623.385 52.1176C623.385 52.1176 634.884 30.788 630.778 25.0461C626.673 19.3043 611.064 6.99969 599.565 7.82048C588.066 8.64127 578.21 30.788 578.21 36.5299C578.21 42.2718 579.028 52.9348 579.028 52.9348C563.721 74.1373 554.357 105.044 544.48 129.01L539.632 131.68V138.122C530.737 154.102 516.488 178.043 510.062 180.894C487.878 190.74 430.386 198.944 430.386 198.944C405.235 192.818 379.865 195.382 368.624 197.074C369.413 191.673 370.693 182.013 371.243 172.694C372.064 158.748 335.101 134.959 335.101 134.959C335.101 134.959 335.101 115.271 334.279 107.888C333.596 101.757 320.46 88.8534 316.027 84.6441L317.438 62.7697C317.438 62.7697 317.98 56.1054 318.26 42.6713C318.671 22.9833 287.046 0.426118 281.296 0.836512C276.932 1.14522 265.691 5.34722 265.691 5.34722C264.458 3.70565 258.709 2.4781 250.904 2.4781C243.1 2.4781 209.832 29.9563 208.599 36.9294C207.366 43.9025 207.777 67.6908 207.777 67.6908L205.726 93.9415C205.726 93.9415 206.024 93.5784 206.573 92.9174C206.671 95.8628 206.886 108.534 203.26 110.35C199.154 112.398 186.422 139.88 186.422 145.622C186.422 151.364 193.816 160.799 193.816 160.799L213.785 189.651L198.693 201.679C196.071 202.685 192.721 203.993 188.957 205.503H187.502L187.663 206.023C172.716 212.066 152.139 221.044 144.79 227.381C132.741 237.772 121.242 313.241 120.147 317.617C119.053 321.994 109.205 383.226 97.1562 400.742C85.1079 418.258 79.0855 442.304 74.7033 456.523C71.5794 466.692 56.0871 558.243 56.0871 558.243C56.0871 558.243 54.2324 561.017 50.9958 565.336C48.3701 557.418 38.7474 531.146 28.7029 538.01C9.54479 551.084 22.8842 584.562 25.9608 594.063C14.0143 611.234 55.538 657.791 55.538 657.791C49.5156 666.54 8.44286 670.371 8.44286 670.371C5.67927 673.866 3.11966 677.517 0.776729 681.307C-2.49629 686.772 5.15894 688.418 12.8251 683.486C19.1856 679.4 47.77 677.577 57.3272 677.072L166.701 1093.64L143.91 1006.84C145.237 1041.69 122.893 1096.91 100.997 1119.89C92.9959 1128.29 105.292 1136.71 125.497 1141.8V1158.25H84.1224V1216.69H454.701V1158.25H413.344V1138.96H370.432C366.22 1112.9 351.801 1048.79 351.801 1048.79C352.997 1036.84 360.591 980.48 364.624 950.765C369.413 967.391 391.23 858.477 391.23 858.477L429.56 796.133C429.56 796.133 381.371 487.695 362.751 465.817C344.131 443.939 351.801 431.91 353.99 415.502C356.179 399.093 375.348 289.994 375.348 289.994C384.386 266.205 408.206 254.722 432.848 251.439C447.918 249.434 489.402 236.69 520.129 225.965L502.4 291.036C498.505 292.808 496.112 295.06 496.112 297.937C496.112 313.521 543.753 321.725 570.042 315.983C583.218 313.107 620.832 296.128 596.386 288.236L561.794 195.988C567.249 180.291 575.763 154.782 583.923 130.031L639.11 107.514L596.059 249.939C591.357 252.583 589.989 255.938 594.666 260.206C613.559 277.42 717.059 265.116 703.916 252.811ZM606.987 13.0031L612.464 15.1822L611.373 32.1391L615.206 16.8237L620.683 20.0924L619.592 32.6693L623.429 22.8235L628.356 28.293C627.811 30.4721 622.607 44.7015 620.141 46.3431C620.141 46.3431 608.915 39.0795 603.638 36.4137L606.453 29.3898L606.987 13.0031ZM367.133 171.052C370.752 178.879 366.846 191.557 364.515 197.753C363.293 197.978 362.613 198.116 362.613 198.116C362.613 198.116 334.276 192.785 331.399 192.371C328.522 191.957 302.651 164.072 301.829 162.02C301.145 160.316 300.465 133.456 300.251 124.391C303.986 130.202 309.706 152.221 312.372 153.547C313.03 153.874 332.421 167.348 332.632 166.124C338.683 175.93 325.511 137.138 325.511 137.138C325.511 137.138 362.205 160.389 367.133 171.052ZM330.159 105.425C335.912 111.167 329.337 129.217 329.337 129.217C326.657 127.205 311.932 109.344 306.615 102.85C307.382 98.0527 308.23 90.6439 308.924 82.672L310.473 83.8851L311.266 85.7373C311.266 85.7373 324.417 99.6834 330.159 105.425ZM211.472 36.9294C213.116 29.9563 246.384 8.35435 248.846 7.53357C251.308 6.71278 265.273 6.98879 265.273 6.98879C265.273 6.98879 273.325 7.9258 278.965 6.98879C283.897 6.16801 307.99 19.0173 311.274 37.0674C311.274 41.3384 315.565 52.5171 315.11 57.2893C313.732 55.0193 312.101 52.9127 310.248 51.0099C310.213 49.2629 310.007 47.5235 309.633 45.8165C305.8 31.5979 290.468 14.6446 263.633 13.5515C236.009 12.4183 214.349 46.9205 214.349 46.9205V52.528C214.096 54.0817 213.975 55.6537 213.985 57.2276C212.976 58.3808 212.037 59.5936 211.174 60.8594C210.803 54.2205 210.297 41.9123 211.472 36.9294ZM303.775 45.3371C299.12 41.8614 292.901 38.2478 284.58 34.8811C254.185 22.5729 226.531 47.1856 226.531 47.1856C224.243 48.4825 222.054 49.949 219.985 51.5729C225.68 36.8822 236.834 20.7243 260.887 18.4726C284.406 16.2717 299.247 37.6848 303.775 45.3371ZM212.156 64.9488C212.978 60.4381 224.204 50.8683 224.204 50.8683C224.204 50.8683 241.042 34.053 267.739 33.6426C285.304 33.3703 298.425 43.7536 305.342 50.8901C322.227 65.4972 303.062 68.7804 300.323 67.1388C293.145 62.1196 281.667 60.9102 280.06 58.6622C278.005 55.7894 270.204 53.327 263.633 53.327C257.061 53.327 257.472 61.1209 247.631 61.5313C240.94 61.8109 229.324 71.1665 222.557 77.148C222.557 77.05 222.578 76.9846 222.578 76.9846C222.578 76.9846 214.705 81.9275 212.174 85.1889C206.53 87.713 211.417 69.0164 212.156 64.9561V64.9488ZM195.863 157.509C193.419 152.606 187.237 146.853 188.473 142.753C189.71 138.653 200.795 114.45 206.955 109.936C212.228 106.075 209.679 93.8035 208.835 90.3497C210.625 88.3885 213.134 85.8063 216.207 83.0352C214.567 85.6465 213.254 89.2093 213.254 93.9306C213.254 101.285 213.45 120.904 219.825 128.386C218.934 135.802 222.757 158.555 224.189 169.4C224.189 169.4 217.618 174.731 214.334 174.731C211.05 174.731 198.329 162.437 195.863 157.516V157.509ZM199.238 204.933C203.737 208.903 214.512 218.451 223.746 226.949L199.213 204.944L199.238 204.933ZM30.8958 545.666C41.8058 541.122 45.9299 562.993 47.0063 570.525C43.1405 575.417 38.2164 581.276 32.6123 587.123C30.1321 580.749 19.1529 550.551 30.8958 545.666ZM44.5843 636.995C27.6118 611.837 25.6008 598.705 34.1834 592.149C43.4933 585.042 39.802 582.979 59.3747 557.694C59.3747 557.694 71.8631 476.473 76.3471 460.362C81.824 440.674 98.8036 404.581 100.993 401.298C103.182 398.015 123.995 318.173 123.995 318.173C123.995 318.173 134.945 245.976 143.709 233.959C149.652 225.794 173.727 215.124 188.604 209.099C193.114 224.033 209.934 281.052 206.133 288.635C202.587 295.714 183.266 323.566 176.021 333.931C171.657 316.212 179.847 258.027 179.847 258.027C179.847 258.027 169.988 272.245 166.704 282.087C163.42 291.93 148.084 357.556 148.084 357.556C148.084 357.556 110.867 424.265 114.14 450.509C117.413 476.752 73.6196 563.164 76.9035 571.913C80.1875 580.662 71.4267 603.633 71.4267 603.633C71.4267 603.633 56.0908 617.307 51.7122 621.683C50.9194 622.471 44.5843 636.995 44.5843 636.995ZM142.608 772.073C144.062 782.3 142.931 836.977 142.662 897.875C119.387 800.742 94.0651 696.379 86.6899 665.988C88.4573 663.696 91.2794 660.881 94.967 659.962C101.538 658.324 126.73 660.511 134.396 655.604C142.062 650.698 125.086 638.102 119.609 645.762C114.867 652.386 84.6206 649.873 74.8997 650.164C81.4676 638.593 83.0168 578.577 84.5624 562.637C91.6794 552.247 125.086 475.681 125.086 475.681C130.563 463.649 127.268 438.491 130.563 434.118C133.858 429.746 163.417 359.743 168.897 355.366C171.425 353.347 173.479 349.465 174.967 345.866C178.604 363.146 186.906 403.746 188.608 419.9C190.79 440.681 172.181 493.182 165.61 517.232C159.038 541.282 139.324 749.105 142.608 772.073ZM53.356 645.66C53.3179 640.503 54.0534 635.368 55.538 630.428L63.7533 625.507L68.3646 637.79L70.8703 647.385L58.2764 652.306L53.356 645.66ZM166.701 1085.98L61.5603 671.446C64.1054 669.53 66.8059 667.83 69.6338 666.362L172.188 1059.74C172.188 1059.74 73.7396 680.693 72.9941 664.865C73.5941 664.64 74.1942 664.448 74.787 664.288C76.1471 664.502 77.78 665.196 79.3292 666.002C92.5631 697.882 178.847 1065.64 180.942 1075.04C183.124 1084.89 184.215 1107.86 184.215 1107.86L166.701 1085.98ZM206.286 1090.76L280.213 898.812C282.678 977.557 258.029 1088.29 258.029 1088.29L272.812 950.489L206.286 1090.76ZM303.411 1138.96H275.387C288.359 1129.24 293.748 1108.95 293.748 1108.95C293.748 1108.95 308.768 1064.87 312.368 1026.92C312.437 1026.19 312.499 1025.44 312.561 1024.68C313.746 1044.29 314.561 1057.55 314.561 1057.55C314.561 1057.55 309.317 1081.85 305.8 1094.73C299.505 1117.78 317.31 1110.75 303.411 1138.96ZM346.324 1048.79L362.445 1138.96H355.434C345.935 1136.84 330.032 1133.7 325.515 1135.2C325.515 1135.2 338.658 1095.83 328.788 1084.89C318.918 1073.95 320.027 1061.92 320.027 1061.92L315.645 869.416C315.645 869.416 321.118 937.229 349.597 947.075C364.675 952.287 346.32 1048.79 346.32 1048.79H346.324ZM350.688 376.954L336.723 312.148L334.261 334.302C334.261 334.302 320.805 306.7 315.641 302.309C304.964 293.288 277.583 303.13 275.939 306.413C274.296 309.696 331.795 367.115 331.795 367.115C331.795 367.115 258.36 330.434 247.326 321.249C253.116 326.639 284.369 355.522 308.757 374.005C323.256 383.019 333.439 389.258 333.439 389.258C328.017 387.678 318.991 381.755 308.757 374.005C275.856 353.554 220.749 318.863 211.901 310.575C220.553 319.455 293.363 393.239 334.261 404.029C334.261 404.029 280.867 411.412 271.834 409.774C262.8 408.136 220.084 331.022 220.084 331.022C220.084 331.022 225.011 390.907 233.227 403.212C241.442 415.516 300.582 441.763 322.758 440.125L306.346 469.663L340.025 455.717C340.025 455.717 358.096 468.842 359.74 471.304C361.383 473.767 383.56 554.978 383.56 554.978C383.56 554.978 388.488 785.485 384.382 796.152C384.382 796.152 351.524 805.994 346.597 811.736C341.669 817.477 308.812 829.782 308.812 829.782C308.812 829.782 361.38 634.547 361.38 605.838C361.38 605.838 294.025 818.298 261.167 857.674L181.491 1034.05C181.491 1034.05 183.953 933.964 191.346 921.66C191.346 921.66 296.49 755.134 302.24 732.984C302.24 732.984 198.74 890.488 185.597 898.692C185.597 898.692 232.419 761.697 236.51 746.933C236.51 746.933 355.616 533.648 355.616 514.781C355.616 514.781 243.904 696.073 202.835 728.883C202.835 728.883 326.046 535.308 331.795 515.602C331.795 515.602 177.367 728.883 160.118 740.367C160.118 740.367 152.725 603.375 164.228 554.978C164.228 554.978 197.903 601.734 223.368 592.709C248.832 583.684 274.281 556.616 274.281 556.616C274.281 556.616 226.641 587.791 204.457 572.203C182.273 556.616 167.526 523.777 167.526 523.777L182.313 486.859C182.313 486.859 225.026 549.207 243.918 554.949C243.918 554.949 185.597 487.68 193.005 464.713C193.005 464.713 229.146 527.877 243.111 536.899C243.111 536.899 181.506 360.531 181.506 344.126C181.506 344.126 208.61 419.595 241.467 429.441C241.467 429.441 188.077 336.742 189.717 322.796C191.357 308.85 196.274 311.316 196.274 311.316C196.274 311.316 215.167 289.987 211.061 269.481C208.075 254.558 197.329 223.84 192.059 207.69C193.299 207.199 194.434 206.756 195.449 206.368C207.133 220.608 232.376 248.344 234.881 248.973L317.027 269.481L353.99 284.245L351.524 328.553L364.667 310.506L350.688 376.954ZM239.093 240.714C239.751 241.117 240.449 241.52 241.18 241.912L240.089 241.6L239.093 240.714ZM515.808 214.528C504.309 215.349 407.653 254.725 394.514 242.693C388.931 237.583 395.059 210.428 395.059 210.428C395.059 210.428 370.373 232.542 367.133 236.679C357.274 249.256 361.387 277.515 355.085 273.32C335.37 260.195 243.369 241.6 243.369 241.6C239.263 237.496 205.311 203.045 205.311 203.045L228.586 180.891L230.405 139.237C229.615 136.528 228.972 134.189 228.492 132.381C228.812 128.604 229.161 125.981 229.528 125.52C230.096 124.785 230.439 123.903 230.517 122.978C233.514 126.279 235.689 128.4 235.689 128.4C231.325 123.475 232.416 115.275 232.416 115.275C232.416 115.275 231.325 109.257 225.295 104.884C219.953 101.002 221.931 82.0801 222.447 77.8454C230.506 71.6931 240.787 65.9621 251.719 65.2357C259.022 57.6489 264.448 54.8669 270.535 57.4164L269.808 65.2357C269.808 65.2357 266.931 61.9671 263.237 64.4149C261.709 65.4319 255.021 76.7195 255.021 76.7195C255.021 76.7195 264.058 68.1049 265.702 68.1049C267.346 68.1049 273.503 75.0779 275.558 75.8987C277.612 76.7195 278.434 73.8467 277.201 71.388C275.969 68.9293 279.253 64.8253 278.434 63.1838C287.162 66.8591 297.843 74.2644 305.542 80.068C305.426 86.8014 305.178 93.8689 304.717 100.508C303.073 124.024 292.672 126.21 292.672 126.21C292.672 126.21 275.147 115.275 266.386 115.275C257.625 115.275 235.307 119.785 245.166 131.255C252.505 139.804 272.583 140.167 284.569 136.339L280.882 139.895L273.488 181.73C273.488 181.73 274.325 194.753 261.989 193.213C249.133 191.612 238.376 164.548 232.448 145.905C234.103 157.255 237.227 172.933 242.824 184.74C252.679 205.522 275.132 193.489 275.132 193.489L283.897 143.163L297.585 128.945L284.988 204.417L323.326 205.507C323.326 205.507 347.804 202.478 363.209 200.993C363.093 201.254 363.024 201.403 363.024 201.403H367.951C367.951 201.403 368.028 200.945 368.151 200.161C368.93 199.965 369.693 199.751 370.421 199.489C385.749 194.023 428.466 202.758 428.466 202.758C452.559 198.4 517.725 193.46 525.929 175.959L539.632 140.941V148.085L541.545 147.304L523.503 213.53C520.634 214.013 517.987 214.372 515.808 214.528ZM298.447 123.087L297.981 123.534C298.086 123.34 298.249 123.183 298.447 123.087ZM543.465 156.834L557.037 192.487L551.946 207.145C551.946 207.145 543.411 209.418 534.039 211.46L543.465 156.834ZM530.322 208.787L529.813 212.349L529.246 212.466L530.322 208.787ZM506.32 289.554L525.813 223.957L528.202 223.1L518.823 286.445L519.914 286.718C514.87 287.412 510.175 288.338 506.32 289.554ZM558.543 311.875C542.112 313.513 510.077 290.546 525.685 288.083C541.294 285.621 592.237 292.187 592.237 292.187C607.809 297.929 574.952 310.227 558.543 311.875ZM593.161 287.332C588.538 286.213 582.32 285.341 574.148 284.789C574.148 284.789 551.149 287.252 566.755 284.789C566.755 284.789 541.429 283.907 521.103 286.547L532.293 221.61C545.633 216.708 555.063 212.734 556.059 211.245C556.546 210.519 558.012 206.658 560.143 200.64L593.161 287.332ZM558.699 187.744L543.269 146.606L577.854 132.508L558.699 187.744ZM585.647 106.522L545.054 128.709L584.094 47.3346C585.414 46.423 587.338 45.1119 589.433 43.7427L585.647 106.522ZM589.724 39.2102C587.364 40.4123 585.647 41.4401 585.647 41.4401L585.411 41.9522C585.774 38.0153 586.382 31.3909 586.745 26.6768C587.291 19.5658 596.055 13.5515 598.794 10.8167C601.532 8.08197 604.249 14.0854 604.249 14.0854L603.703 28.3003L602.66 35.9488C602.449 35.8544 602.234 35.7563 602.056 35.6837C600.158 34.9247 596.495 36.105 593.106 37.5868L593.295 32.6766L589.735 38.6908L589.724 39.2102ZM592.975 41.5019C595.586 39.893 598.019 38.5383 599.339 38.1606C600.067 37.9463 601.132 38.1388 602.321 38.5674L602.078 40.347L602.729 38.7308C607.624 40.6775 614.672 46.3576 614.672 46.3576C608.1 49.6262 597.15 45.8092 597.15 45.8092L600.423 52.3719C600.423 52.3719 602.063 54.551 609.184 52.9166C610.628 52.5933 612.045 52.1623 613.424 51.6273C608.529 55.6042 602.878 60.3001 602.878 60.3001L590.909 94.8604L592.975 41.5019ZM639.863 114.178L635.532 241.782C623.24 242.889 608.187 244.89 599.325 248.406L639.863 114.178ZM668.593 262.65C668.593 262.65 628.345 270.033 604.522 253.628C604.522 253.628 611.093 243.783 667.774 248.707C701.683 251.653 668.593 262.65 668.593 262.65ZM655.453 240.496C655.453 240.496 649.365 240.685 640.961 241.32L642.034 110.339L687.282 244.324C674.761 240.877 660.919 241.052 655.453 240.496ZM279.514 92.8484L268.561 87.9273C268.561 87.9273 258.2 88.4793 257.781 88.7626C255.636 90.2153 251.039 91.7552 251.039 91.7552C251.039 91.7552 264.182 90.6656 266.917 90.6656C269.652 90.6656 279.514 92.8484 279.514 92.8484ZM261.167 96.8143C261.167 96.8143 264.044 93.5457 268.561 96.4039C268.561 96.4039 262.811 91.8896 261.167 96.8143ZM300.185 61.5386C300.185 61.5386 287.366 57.1804 281.209 53.7992C285.522 57.4165 293.428 62.9441 300.185 61.5386ZM278.001 50.8756C277.794 51.6019 279.118 52.6443 281.205 53.7992C279.245 52.1358 278.005 50.8756 278.005 50.8756H278.001Z" fill="url(#paint0_linear_311_209)"></path><defs><linearGradient id="paint0_linear_311_209" x1="352.533" y1="0.830994" x2="352.533" y2="1216.69" gradientUnits="userSpaceOnUse"><stop stop-color="white"></stop><stop offset="1" stop-color="#191919"></stop></linearGradient></defs></svg>