<svg xmlns="http://www.w3.org/2000/svg" width="24" height="23" viewBox="0 0 24 23" fill="none"><path d="M21 11.0209C21.0034 12.2857 20.6951 13.5335 20.1 14.6625C19.3944 16.0155 18.3098 17.1534 16.9674 17.9489C15.6251 18.7444 14.0782 19.1661 12.5 19.1667C11.1801 19.17 9.87812 18.8745 8.7 18.3042L3 20.125L4.9 14.6625C4.30493 13.5335 3.99656 12.2857 4 11.0209C4.00061 9.50838 4.44061 8.02593 5.27072 6.73955C6.10083 5.45318 7.28825 4.4137 8.7 3.73753C9.87812 3.16725 11.1801 2.87173 12.5 2.87503H13C15.0843 2.98523 17.053 3.82834 18.5291 5.24293C20.0052 6.65753 20.885 8.54419 21 10.5417V11.0209Z" stroke="#E2E2E2" stroke-linecap="round" stroke-linejoin="round"></path><path d="M15.9998 12.6892V13.699C16.0002 13.7928 15.9773 13.8856 15.9324 13.9715C15.8875 14.0574 15.8217 14.1345 15.7391 14.1979C15.6566 14.2612 15.5591 14.3095 15.453 14.3395C15.3469 14.3696 15.2344 14.3807 15.1229 14.3723C13.8851 14.2597 12.6962 13.9058 11.6516 13.3388C10.6797 12.822 9.85571 12.1324 9.23813 11.3191C8.55834 10.4409 8.1353 9.44107 8.00326 8.40056C7.99321 8.30747 8.00643 8.21365 8.04208 8.12508C8.07773 8.0365 8.13503 7.9551 8.21032 7.88607C8.28562 7.81704 8.37727 7.76189 8.47943 7.72412C8.58159 7.68636 8.69203 7.66681 8.80372 7.66672H10.0104C10.2056 7.66511 10.3949 7.72296 10.5429 7.82949C10.6909 7.93602 10.7876 8.08395 10.8149 8.24571C10.8658 8.5689 10.9603 8.88622 11.0965 9.19163C11.1506 9.31212 11.1623 9.44306 11.1302 9.56895C11.0981 9.69483 11.0236 9.81038 10.9155 9.90191L10.4046 10.3294C10.9772 11.1722 11.811 11.87 12.8181 12.3492L13.3289 11.9217C13.4383 11.8312 13.5763 11.7688 13.7268 11.7419C13.8772 11.7151 14.0336 11.7249 14.1776 11.7702C14.5426 11.8841 14.9217 11.9632 15.3079 12.0058C15.5033 12.0289 15.6817 12.1112 15.8093 12.2372C15.9369 12.3632 16.0046 12.5241 15.9998 12.6892Z" stroke="#E2E2E2" stroke-linecap="round" stroke-linejoin="round"></path></svg>