<svg xmlns="http://www.w3.org/2000/svg" width="194" height="194" viewBox="0 0 194 194" fill="none"><mask id="mask0_462_582" style="mask-type:alpha" maskUnits="userSpaceOnUse" x="0" y="0" width="194" height="194"><path d="M97 116.396C102.144 116.396 107.078 114.353 110.715 110.715C114.353 107.078 116.396 102.144 116.396 97C116.396 91.8558 114.353 86.9223 110.715 83.2849C107.078 79.6474 102.144 77.6039 97 77.6039C91.8558 77.6039 86.9223 79.6474 83.2849 83.2849C79.6474 86.9223 77.6039 91.8558 77.6039 97C77.6039 102.144 79.6474 107.078 83.2849 110.715C86.9223 114.353 91.8558 116.396 97 116.396ZM38.8116 97C38.8116 89.3586 40.3167 81.792 43.241 74.7323C46.1652 67.6725 50.4513 61.2579 55.8546 55.8546C61.2579 50.4513 67.6725 46.1652 74.7323 43.241C81.792 40.3167 89.3586 38.8116 97 38.8116C104.641 38.8116 112.208 40.3167 119.268 43.241C126.327 46.1652 132.742 50.4513 138.145 55.8546C143.549 61.2579 147.835 67.6725 150.759 74.7323C153.683 81.792 155.188 89.3586 155.188 97C155.188 112.433 149.058 127.233 138.145 138.145C127.233 149.058 112.433 155.188 97 155.188C81.5675 155.188 66.767 149.058 55.8546 138.145C44.9422 127.233 38.8116 112.433 38.8116 97ZM97 53.3587C85.4256 53.3587 74.3253 57.9566 66.141 66.141C57.9566 74.3253 53.3587 85.4256 53.3587 97C53.3587 108.574 57.9566 119.675 66.141 127.859C74.3253 136.043 85.4256 140.641 97 140.641C108.574 140.641 119.675 136.043 127.859 127.859C136.043 119.675 140.641 108.574 140.641 97C140.641 85.4256 136.043 74.3253 127.859 66.141C119.675 57.9566 108.574 53.3587 97 53.3587ZM0 97C0 43.4279 43.4279 0 97 0C150.572 0 194 43.4279 194 97C194 150.572 150.572 194 97 194C43.4279 194 0 150.572 0 97ZM97 14.5471C86.1721 14.5471 75.4503 16.6798 65.4466 20.8234C55.443 24.9671 46.3534 31.0405 38.697 38.697C31.0405 46.3534 24.9671 55.443 20.8234 65.4466C16.6798 75.4503 14.5471 86.1721 14.5471 97C14.5471 107.828 16.6798 118.55 20.8234 128.553C24.9671 138.557 31.0405 147.647 38.697 155.303C46.3534 162.959 55.443 169.033 65.4466 173.177C75.4503 177.32 86.1721 179.453 97 179.453C118.868 179.453 139.84 170.766 155.303 155.303C170.766 139.84 179.453 118.868 179.453 97C179.453 75.1321 170.766 54.1599 155.303 38.697C139.84 23.2341 118.868 14.5471 97 14.5471Z" fill="#051B43" fill-opacity="0.35"></path></mask><g mask="url(#mask0_462_582)"><rect x="58" y="-11" width="465" height="216" rx="20" fill="#051B43"></rect></g></svg>