<svg xmlns="http://www.w3.org/2000/svg" width="335" height="362" viewBox="0 0 335 362" fill="none"><path opacity="0.15" d="M194.393 373.851L171.929 298.739C200.209 289.958 227.056 277.234 252.187 261.882L194.393 373.851ZM78.8632 179.009L14.6135 142.565L125.293 98.633C107.308 123.179 91.4198 150.001 78.8632 179.009ZM328.891 36.8644C333.774 37.2642 338.133 37.6211 341.717 38.8711C342.519 65.5293 334.755 119.609 272.457 177.259C240.152 207.329 202.716 229.326 161.604 242.604L127.381 199.626C147.018 157.04 173.02 120.333 205.119 90.629C257.541 42.1187 301.34 34.6086 328.891 36.8644ZM332.003 -1.14345C297.477 -3.97033 244.09 4.85922 182.551 61.8061C140.955 100.298 114.362 144.227 96.2573 183.112C90.2078 196.965 92.2451 212.82 100.964 224.247L134.808 267.576C140.843 275.34 149.378 280.439 158.62 281.196C162.631 281.524 166.909 280.727 171.06 279.345C216.471 264.691 258.654 239.783 294.834 206.258C402.338 106.777 373.072 9.68033 373.072 9.68033C373.072 9.68033 357.811 0.969572 332.003 -1.14345ZM238.788 133.944C226.4 118.007 228.376 93.8724 243.191 80.163C258.006 66.4535 280.152 68.2667 292.539 84.2034C304.753 100.126 302.951 124.275 288.136 137.985C273.321 151.694 251.175 149.881 238.788 133.944ZM74.5441 360.403L143.681 296.426C137.892 294.23 132.371 290.908 127.466 286.489L49.9571 358.39L74.5441 360.403ZM0.608792 354.35L25.1958 356.363L115.779 272.714L93.2119 243.891L2.8027 327.554L0.608792 354.35ZM5.01217 300.569L82.6802 228.872C79.4851 222.871 77.3673 216.576 76.3425 209.796L7.20608 273.773L5.01217 300.569Z" fill="white"></path></svg>