<svg xmlns="http://www.w3.org/2000/svg" width="523" height="216" viewBox="0 0 523 216" fill="none"><rect x="58" width="465" height="216" rx="20" fill="white"></rect><mask id="mask0_702_186" style="mask-type:alpha" maskUnits="userSpaceOnUse" x="0" y="11" width="194" height="194"><path d="M97 127.396C102.144 127.396 107.078 125.353 110.715 121.715C114.353 118.078 116.396 113.144 116.396 108C116.396 102.856 114.353 97.9223 110.715 94.2849C107.078 90.6474 102.144 88.6039 97 88.6039C91.8558 88.6039 86.9223 90.6474 83.2849 94.2849C79.6474 97.9223 77.6039 102.856 77.6039 108C77.6039 113.144 79.6474 118.078 83.2849 121.715C86.9223 125.353 91.8558 127.396 97 127.396ZM38.8116 108C38.8116 100.359 40.3167 92.792 43.241 85.7323C46.1652 78.6725 50.4513 72.2579 55.8546 66.8546C61.2579 61.4513 67.6725 57.1652 74.7323 54.241C81.792 51.3167 89.3586 49.8116 97 49.8116C104.641 49.8116 112.208 51.3167 119.268 54.241C126.327 57.1652 132.742 61.4513 138.145 66.8546C143.549 72.2579 147.835 78.6725 150.759 85.7323C153.683 92.792 155.188 100.359 155.188 108C155.188 123.433 149.058 138.233 138.145 149.145C127.233 160.058 112.433 166.188 97 166.188C81.5675 166.188 66.767 160.058 55.8546 149.145C44.9422 138.233 38.8116 123.433 38.8116 108ZM97 64.3587C85.4256 64.3587 74.3253 68.9566 66.141 77.141C57.9566 85.3253 53.3587 96.4256 53.3587 108C53.3587 119.574 57.9566 130.675 66.141 138.859C74.3253 147.043 85.4256 151.641 97 151.641C108.574 151.641 119.675 147.043 127.859 138.859C136.043 130.675 140.641 119.574 140.641 108C140.641 96.4256 136.043 85.3253 127.859 77.141C119.675 68.9566 108.574 64.3587 97 64.3587ZM0 108C0 54.4279 43.4279 11 97 11C150.572 11 194 54.4279 194 108C194 161.572 150.572 205 97 205C43.4279 205 0 161.572 0 108ZM97 25.5471C86.1721 25.5471 75.4503 27.6798 65.4466 31.8234C55.443 35.9671 46.3534 42.0405 38.697 49.697C31.0405 57.3534 24.9671 66.443 20.8234 76.4466C16.6798 86.4503 14.5471 97.1721 14.5471 108C14.5471 118.828 16.6798 129.55 20.8234 139.553C24.9671 149.557 31.0405 158.647 38.697 166.303C46.3534 173.959 55.443 180.033 65.4466 184.177C75.4503 188.32 86.1721 190.453 97 190.453C118.868 190.453 139.84 181.766 155.303 166.303C170.766 150.84 179.453 129.868 179.453 108C179.453 86.1321 170.766 65.1599 155.303 49.697C139.84 34.2341 118.868 25.5471 97 25.5471Z" fill="#051B43" fill-opacity="0.35"></path></mask><g mask="url(#mask0_702_186)"><rect x="58" width="465" height="216" rx="20" fill="#051B43"></rect></g></svg>